<svg width="24" height="24" viewBox="0 0 24 24" fill="none" xmlns="http://www.w3.org/2000/svg">
<g clip-path="url(#clip0_215_7948)">
<path d="M22.6719 0C23.0365 0 23.349 0.130208 23.6094 0.390625C23.8698 0.651042 24 0.963542 24 1.32812V22.6719C24 23.0365 23.8698 23.349 23.6094 23.6094C23.349 23.8698 23.0365 24 22.6719 24H16.5625V14.7031H19.6719L20.1406 11.0781H16.5625V8.76562C16.5625 8.18229 16.6849 7.74479 16.9297 7.45312C17.1745 7.16146 17.651 7.01562 18.3594 7.01562L20.2656 7V3.76562C19.6094 3.67188 18.6823 3.625 17.4844 3.625C16.0677 3.625 14.9349 4.04167 14.0859 4.875C13.237 5.70833 12.8125 6.88542 12.8125 8.40625V11.0781H9.6875V14.7031H12.8125V24H1.32812C0.963542 24 0.651042 23.8698 0.390625 23.6094C0.130208 23.349 0 23.0365 0 22.6719V1.32812C0 0.963542 0.130208 0.651042 0.390625 0.390625C0.651042 0.130208 0.963542 0 1.32812 0H22.6719Z" fill="white"/>
</g>
<defs>
<clipPath id="clip0_215_7948">
<rect width="24" height="24" rx="4" fill="white"/>
</clipPath>
</defs>
</svg>
