<svg width="400" height="144" viewBox="0 0 400 144" fill="none" xmlns="http://www.w3.org/2000/svg">
<g clip-path="url(#clip0_215_6973)">
<path fill-rule="evenodd" clip-rule="evenodd" d="M34.2013 0C22.2489 0 8.24919 8.58 8.24919 16.44C8.24919 19.23 10.5975 21.6 15.4146 21.99C14.8426 24.54 14.4512 27.48 14.4512 30.87C14.4512 31.08 14.4512 31.29 14.4512 31.47C7.64705 31.38 3.37188 27.99 3.37188 23.07C3.37188 21.6 3.64284 20.61 3.76326 20.22V20.13L3.52241 20.04C3.19123 20.61 1.86653 23.25 1.86653 25.95C1.86653 30.66 6.38256 35.01 14.662 35.52C14.963 39.24 15.6555 42.75 16.649 46.02H16.4985C5.02775 46.02 0.81279 40.71 0.300973 37.77H-9.5455e-05C-0.271057 43.38 5.44925 49.65 17.9436 49.92C19.4188 53.58 21.3156 56.82 23.5435 59.64C23.122 59.64 22.7306 59.64 22.3091 59.64C15.1437 59.64 9.03197 57.6 5.93096 54.87L5.72021 55.02C6.95459 57.24 12.8555 62.67 24.0553 62.67C24.7779 62.67 25.5004 62.67 26.223 62.61C29.2337 65.61 32.7261 67.86 36.4593 69.24C32.1541 69.72 27.6079 69.57 22.9715 68.61L22.8811 68.91C22.8811 68.91 23.0618 68.97 23.1822 69.03C24.808 69.66 29.2337 71.31 35.7669 71.31C51.5429 71.31 62.1706 61.56 66.4759 54.15L66.1447 53.97C64.6093 55.8 62.7125 57.69 60.4846 59.43C60.0029 56.58 59.3105 53.79 58.4374 51.06C61.7792 48.51 64.6093 45.66 66.7469 42.57C67.3791 45.54 67.6501 48.54 67.4995 51.48L67.8909 51.6C68.4027 50.04 68.6436 47.91 68.6737 44.46C68.6737 43.02 68.5533 41.58 68.2823 40.08C69.9984 36.93 70.9919 33.57 70.9919 30.12C70.9919 27.75 70.45 26.25 70.3597 25.92L70.0887 25.98C70.1489 29.58 69.1554 33.03 67.3791 36.24C66.4458 33.18 65.0308 30.09 63.1641 27.15C64.6394 24.39 65.4824 21.51 65.4824 18.63C65.4824 13.98 62.562 11.55 62.0502 11.19L61.8394 11.34C62.2308 12 62.8631 13.5 62.8631 15.93C62.8631 18.36 62.0803 21.03 60.6653 23.58C58.5578 20.85 56.0589 18.27 53.259 16.02C54.1923 14.13 54.674 12.21 54.674 10.29C54.674 4.83 49.4956 1.86 45.8828 1.23L45.8226 1.44C46.9365 1.8 51.0311 3.69 51.0311 8.58C51.0311 10.14 50.5494 11.79 49.7064 13.47C47.2075 11.82 44.4979 10.44 41.6377 9.36C42.2399 8.13 42.571 6.93 42.571 5.79C42.571 2.01 38.9582 0.03 34.1411 0.03L34.2013 0ZM65.8135 38.79C64.82 35.64 63.4351 32.55 61.6889 29.61C59.5513 32.7 56.6309 35.61 53.1385 38.22C54.674 41.16 56.0589 44.22 57.2331 47.4C60.6352 44.85 63.5856 41.94 65.8135 38.79ZM55.3062 48.78C53.9815 45.69 52.5364 42.69 50.9407 39.78C46.9064 42.48 42.27 44.79 37.3927 46.53C39.0184 49.65 40.7345 52.65 42.4807 55.47C46.9967 53.73 51.3924 51.45 55.3062 48.78ZM40.1926 56.31C38.2658 53.52 36.4593 50.52 34.7734 47.4C30.1369 48.81 25.2897 49.68 20.5629 49.86C22.1285 53.37 24.0854 56.61 26.3735 59.43C30.7992 59.01 35.526 57.93 40.1926 56.31ZM29.053 62.4C33.539 61.95 38.0851 60.93 42.4506 59.43C44.3774 61.95 46.3946 64.26 48.472 66.24C45.4613 67.44 42.1796 68.37 38.7776 68.91C35.225 67.5 31.9433 65.28 29.053 62.4ZM44.5581 58.65C48.9236 56.97 53.0482 54.81 56.6912 52.29C57.6847 54.93 58.5578 57.57 59.2804 60.27C56.5406 62.28 53.3794 64.11 49.9171 65.61C48.1107 63.57 46.3043 61.2 44.5581 58.65ZM19.0576 45.96C23.6338 45.69 28.2703 44.79 32.7261 43.38C31.1906 40.2 29.7756 36.93 28.5713 33.69C24.6574 34.83 20.6231 35.52 16.7092 35.55C17.1006 39.12 17.9135 42.6 19.0275 45.93L19.0576 45.96ZM35.3755 42.48C40.1625 40.74 44.7086 38.43 48.6526 35.79C46.8161 32.73 44.8592 29.82 42.842 27.09C39.3496 29.43 35.3454 31.44 31.1003 32.91C32.425 36.12 33.84 39.33 35.3755 42.51V42.48ZM59.2804 25.86C57.203 28.77 54.3428 31.59 50.9407 34.14C49.1042 31.05 47.1172 28.14 45.0398 25.47C48.0204 23.19 50.4891 20.64 52.2052 18C54.8546 20.37 57.2331 23.01 59.2804 25.83V25.86ZM48.7128 15.24C46.3043 13.47 43.685 11.94 40.9453 10.68C39.7711 12.42 38.0851 14.16 35.9776 15.72C38.0249 17.55 40.1023 19.65 42.1194 21.96C44.8893 19.86 47.1473 17.55 48.7128 15.24ZM40.0722 23.43C38.2055 21.06 36.2787 18.87 34.3519 16.83C32.0637 18.3 29.4143 19.56 26.5843 20.46C27.4273 23.13 28.3907 25.92 29.4745 28.77C33.3583 27.39 36.941 25.53 40.0722 23.43ZM27.1563 29.55C26.1929 26.61 25.4101 23.73 24.8381 21C22.3693 21.66 19.75 22.02 17.1006 22.05C16.7092 24.45 16.4383 27.21 16.4383 30.33C16.4383 30.72 16.4383 31.08 16.4383 31.47C20.0812 31.29 23.694 30.63 27.1262 29.58L27.1563 29.55ZM20.4425 11.07C20.021 11.97 18.7264 14.64 17.7329 18.87C19.8704 18.87 22.0984 18.51 24.2661 17.91C23.8747 15.42 23.6338 13.08 23.6338 10.95L23.9951 10.83C24.4467 12.9 25.0187 15.15 25.6811 17.49C27.9391 16.71 30.1369 15.69 32.0336 14.46C30.1971 12.63 28.3606 10.98 26.5843 9.54L26.8552 9.36C28.9025 10.38 31.1003 11.79 33.3583 13.56C35.1647 12.27 36.64 10.83 37.6335 9.36C34.7131 8.31 31.6723 7.59 28.5111 7.2V6.93C31.9132 6.93 35.1949 7.38 38.2959 8.25C38.7475 7.35 38.9883 6.42 38.9883 5.55C38.9883 4.14 37.8443 1.14 31.9132 1.14C22.851 1.11 11.1093 8.31 11.1093 14.43C11.1093 16.89 12.9158 18.48 16.2877 18.81C17.6726 14.61 19.4188 12 20.0511 11.07L20.1715 10.89L20.4726 11.01V11.07H20.4425Z" fill="#00529C"/>
<path d="M97.4261 60.66H106.819C110.492 60.66 111.877 61.92 111.877 65.01C111.877 68.1 110.462 69.24 106.819 69.24H97.4261V60.66ZM82.8242 91.95H97.4261V79.23H113.052C123.408 79.23 127.111 73.17 127.111 65.31C127.111 56.19 123.258 51.03 112.931 51.03H82.8242V91.98V91.95Z" fill="black"/>
<path d="M131.958 51.03H171.218V60.99H146.53V66.48H169.442V76.44H146.53V81.93H171.218V91.89H131.958V51.03Z" fill="black"/>
<path d="M191.931 60.66H201.325C204.998 60.66 206.383 61.92 206.383 65.01C206.383 68.1 204.968 69.24 201.325 69.24H191.931V60.66ZM177.33 91.95H191.931V79.23H207.557C217.914 79.23 221.617 73.17 221.617 65.31C221.617 56.19 217.763 51.03 207.436 51.03H177.33V91.98V91.95Z" fill="black"/>
<path d="M235.767 74.58C228.602 73.38 225.681 68.79 225.681 63.06C225.681 52.47 235.044 49.59 247.057 49.59C263.526 49.59 270.3 54.36 270.811 63H253.831C253.831 61.35 252.958 60.3 251.603 59.73C250.309 59.1 248.653 58.89 247.057 58.89C242.722 58.89 241.186 60.09 241.186 61.8C241.186 62.94 241.668 63.69 243.083 63.93L260.515 66.78C267.861 67.98 272.407 71.76 272.407 78.69C272.407 88.65 265.061 93.36 248.653 93.36C237.423 93.36 225.139 91.65 225.079 79.62H242.662C242.722 81 243.203 81.9 244.227 82.53C245.311 83.1 246.937 83.37 249.195 83.37C253.741 83.37 255.005 81.99 255.005 80.04C255.005 78.84 254.343 77.64 252.356 77.31L235.707 74.55L235.767 74.58Z" fill="black"/>
<path d="M237.302 127.71C231.07 126.66 228.481 122.7 228.481 117.75C228.481 108.57 236.67 106.08 247.147 106.08C261.538 106.08 267.469 110.19 267.921 117.69H253.078C253.078 116.25 252.326 115.35 251.152 114.84C250.038 114.3 248.592 114.09 247.147 114.09C243.354 114.09 242.029 115.14 242.029 116.64C242.029 117.63 242.421 118.29 243.685 118.5L258.919 120.99C265.392 122.04 269.336 125.31 269.336 131.31C269.336 139.95 262.923 144.03 248.562 144.03C238.747 144.03 228.029 142.53 227.969 132.12H243.354C243.414 133.32 243.805 134.1 244.709 134.67C245.642 135.18 247.057 135.42 249.074 135.42C253.078 135.42 254.162 134.22 254.162 132.54C254.162 131.49 253.59 130.44 251.874 130.14L237.272 127.71H237.302Z" fill="black"/>
<path d="M277.224 51.03H291.826V91.95H277.224V51.03Z" fill="black"/>
<path d="M345.898 76.02C344.965 81.39 343.309 85.77 339.696 88.74C336.113 91.71 330.513 93.39 321.632 93.39C312.75 93.39 296.372 92.7 296.372 71.49C296.372 50.28 312.78 49.59 321.632 49.59C330.483 49.59 344.001 50.85 345.898 67.05H329.429C329.008 64.14 327.262 59.91 321.602 59.91C315.64 59.91 311.877 63.18 311.877 71.46C311.877 79.74 315.55 83.01 320.879 83.01C325.485 83.01 328.225 80.88 329.399 75.96H345.898V76.02Z" fill="black"/>
<path d="M365.016 71.49C365.016 63.18 368.809 59.94 374.74 59.94C380.671 59.94 384.465 63.21 384.465 71.49C384.465 79.77 380.671 83.04 374.74 83.04C368.809 83.04 365.016 79.8 365.016 71.49ZM349.48 71.49C349.48 92.7 365.889 93.39 374.74 93.39C383.592 93.39 400 92.7 400 71.49C400 50.28 383.592 49.59 374.74 49.59C365.889 49.59 349.48 50.28 349.48 71.49Z" fill="black"/>
<path d="M82.4326 106.08H95.8904V132.99H119.464V143.28H82.4627V106.08H82.4326Z" fill="black"/>
<path d="M157.339 136.23H139.846L136.956 143.31H122.505L139.846 106.11H157.308L174.65 143.31H160.259L157.339 136.23ZM154.057 128.13L151.407 121.68C150.775 120.09 149.24 116.07 148.638 113.67H148.487C147.825 116.1 146.319 120.12 145.717 121.68L143.068 128.13H154.057Z" fill="black"/>
<path d="M223.905 132.48C223.905 137.7 220.202 143.28 209.393 143.28H179.016V106.08H209.213C218.576 106.08 223.032 109.77 223.032 115.38C223.032 119.16 220.593 122.46 215.264 123.57C220.955 124.38 223.905 127.53 223.905 132.51V132.48ZM192.473 114.39V120.6H205.118C208.219 120.6 209.002 118.89 209.002 117.3C209.002 115.71 208.159 114.39 205.118 114.39H192.473ZM209.875 131.4C209.875 129.48 208.4 128.04 205.63 128.04H192.504V135.03H205.63C208.611 135.03 209.875 133.26 209.875 131.4Z" fill="black"/>
</g>
<defs>
<clipPath id="clip0_215_6973">
<rect width="400" height="144" fill="white"/>
</clipPath>
</defs>
</svg>
