<svg width="223" height="80" viewBox="0 0 223 80" fill="none" xmlns="http://www.w3.org/2000/svg">
<g clip-path="url(#clip0_405_2376)">
<path fill-rule="evenodd" clip-rule="evenodd" d="M19.0005 0C12.3602 0 4.58261 4.76667 4.58261 9.13333C4.58261 10.6833 5.88724 12 8.5634 12.2167C8.24561 13.6333 8.02817 15.2667 8.02817 17.15C8.02817 17.2667 8.02817 17.3833 8.02817 17.4833C4.24809 17.4333 1.87299 15.55 1.87299 12.8167C1.87299 12 2.02352 11.45 2.09042 11.2333V11.1833L1.95662 11.1333C1.77263 11.45 1.03668 12.9167 1.03668 14.4167C1.03668 17.0333 3.54559 19.45 8.14525 19.7333C8.31251 21.8 8.69721 23.75 9.24917 25.5667H9.16554C2.79292 25.5667 0.451272 22.6167 0.166929 20.9833H-0.000331079C-0.150865 24.1 3.02708 27.5833 9.96839 27.7333C10.788 29.7667 11.8417 31.5667 13.0794 33.1333C12.8453 33.1333 12.6278 33.1333 12.3937 33.1333C8.41287 33.1333 5.01748 32 3.2947 30.4833L3.17762 30.5667C3.86339 31.8 7.14169 34.8167 13.3638 34.8167C13.7652 34.8167 14.1666 34.8167 14.5681 34.7833C16.2407 36.45 18.1809 37.7 20.2549 38.4667C17.8631 38.7333 15.3375 38.65 12.7616 38.1167L12.7115 38.2833C12.7115 38.2833 12.8118 38.3167 12.8787 38.35C13.7819 38.7 16.2407 39.6167 19.8702 39.6167C28.6347 39.6167 34.539 34.2 36.9308 30.0833L36.7468 29.9833C35.8938 31 34.84 32.05 33.6023 33.0167C33.3347 31.4333 32.95 29.8833 32.4649 28.3667C34.3215 26.95 35.8938 25.3667 37.0813 23.65C37.4326 25.3 37.5831 26.9667 37.4995 28.6L37.7169 28.6667C38.0012 27.8 38.1351 26.6167 38.1518 24.7C38.1518 23.9 38.0849 23.1 37.9343 22.2667C38.8877 20.5167 39.4397 18.65 39.4397 16.7333C39.4397 15.4167 39.1386 14.5833 39.0884 14.4L38.9379 14.4333C38.9714 16.4333 38.4194 18.35 37.4326 20.1333C36.9141 18.4333 36.1279 16.7167 35.0909 15.0833C35.9105 13.55 36.3788 11.95 36.3788 10.35C36.3788 7.76667 34.7564 6.41667 34.472 6.21667L34.355 6.3C34.5724 6.66667 34.9237 7.5 34.9237 8.85C34.9237 10.2 34.4888 11.6833 33.7027 13.1C32.5318 11.5833 31.1436 10.15 29.588 8.9C30.1066 7.85 30.3742 6.78333 30.3742 5.71667C30.3742 2.68333 27.4973 1.03333 25.4902 0.683333L25.4567 0.8C26.0756 1 28.3503 2.05 28.3503 4.76667C28.3503 5.63333 28.0827 6.55 27.6144 7.48333C26.2261 6.56667 24.7208 5.8 23.1318 5.2C23.4663 4.51667 23.6503 3.85 23.6503 3.21667C23.6503 1.11667 21.6432 0.0166667 18.967 0.0166667L19.0005 0ZM36.5628 21.55C36.0108 19.8 35.2414 18.0833 34.2713 16.45C33.0838 18.1667 31.4614 19.7833 29.5211 21.2333C30.3742 22.8667 31.1436 24.5667 31.7959 26.3333C33.6859 24.9167 35.3251 23.3 36.5628 21.55ZM30.7254 27.1C29.9895 25.3833 29.1866 23.7167 28.3001 22.1C26.0588 23.6 23.483 24.8833 20.7734 25.85C21.6766 27.5833 22.63 29.25 23.6001 30.8167C26.109 29.85 28.551 28.5833 30.7254 27.1ZM22.3289 31.2833C21.2585 29.7333 20.2549 28.0667 19.3183 26.3333C16.7424 27.1167 14.0495 27.6 11.4236 27.7C12.2933 29.65 13.3805 31.45 14.6517 33.0167C17.1104 32.7833 19.7364 32.1833 22.3289 31.2833ZM16.1403 34.6667C18.6325 34.4167 21.1581 33.85 23.5834 33.0167C24.6539 34.4167 25.7745 35.7 26.9286 36.8C25.256 37.4667 23.4329 37.9833 21.5428 38.2833C19.5691 37.5 17.746 36.2667 16.1403 34.6667ZM24.7542 32.5833C27.1795 31.65 29.471 30.45 31.4948 29.05C32.0468 30.5167 32.5318 31.9833 32.9333 33.4833C31.4112 34.6 29.6549 35.6167 27.7315 36.45C26.7279 35.3167 25.7243 34 24.7542 32.5833ZM10.5873 25.5333C13.1296 25.3833 15.7054 24.8833 18.1809 24.1C17.3279 22.3333 16.5417 20.5167 15.8727 18.7167C13.6983 19.35 11.457 19.7333 9.28262 19.75C9.50006 21.7333 9.95167 23.6667 10.5705 25.5167L10.5873 25.5333ZM19.6528 23.6C22.3122 22.6333 24.8378 21.35 27.029 19.8833C26.0087 18.1833 24.9215 16.5667 23.8008 15.05C21.8606 16.35 19.636 17.4667 17.2777 18.2833C18.0136 20.0667 18.7997 21.85 19.6528 23.6167V23.6ZM32.9333 14.3667C31.7792 15.9833 30.1902 17.55 28.3001 18.9667C27.2799 17.25 26.1759 15.6333 25.0218 14.15C26.6777 12.8833 28.0492 11.4667 29.0026 10C30.4745 11.3167 31.7959 12.7833 32.9333 14.35V14.3667ZM27.0624 8.46667C25.7243 7.48333 24.2692 6.63333 22.7471 5.93333C22.0948 6.9 21.1581 7.86667 19.9873 8.73333C21.1247 9.75 22.2788 10.9167 23.3994 12.2C24.9382 11.0333 26.1927 9.75 27.0624 8.46667ZM22.262 13.0167C21.225 11.7 20.1546 10.4833 19.0841 9.35C17.8129 10.1667 16.341 10.8667 14.7688 11.3667C15.2371 12.85 15.7723 14.4 16.3745 15.9833C18.5321 15.2167 20.5225 14.1833 22.262 13.0167ZM15.0866 16.4167C14.5513 14.7833 14.1165 13.1833 13.7987 11.6667C12.4271 12.0333 10.972 12.2333 9.50006 12.25C9.28262 13.5833 9.13209 15.1167 9.13209 16.85C9.13209 17.0667 9.13209 17.2667 9.13209 17.4833C11.1559 17.3833 13.1631 17.0167 15.0698 16.4333L15.0866 16.4167ZM11.3567 6.15C11.1225 6.65 10.4033 8.13333 9.85131 10.4833C11.0389 10.4833 12.2766 10.2833 13.4809 9.95C13.2634 8.56667 13.1296 7.26667 13.1296 6.08333L13.3303 6.01667C13.5812 7.16667 13.899 8.41667 14.267 9.71667C15.5214 9.28333 16.7424 8.71667 17.7962 8.03333C16.7759 7.01667 15.7556 6.1 14.7688 5.3L14.9193 5.2C16.0567 5.76667 17.2777 6.55 18.5321 7.53333C19.5357 6.81667 20.3553 6.01667 20.9072 5.2C19.2848 4.61667 17.5955 4.21667 15.8392 4V3.85C17.7293 3.85 19.5524 4.1 21.2752 4.58333C21.5261 4.08333 21.6599 3.56667 21.6599 3.08333C21.6599 2.3 21.0243 0.633333 17.7293 0.633333C12.6947 0.616667 6.17158 4.61667 6.17158 8.01667C6.17158 9.38333 7.17514 10.2667 9.04846 10.45C9.81786 8.11667 10.788 6.66667 11.1392 6.15L11.2061 6.05L11.3734 6.11667V6.15H11.3567Z" fill="white"/>
<path d="M54.1255 33.7H59.344C61.3846 33.7 62.154 34.4 62.154 36.1166C62.154 37.8333 61.3679 38.4666 59.344 38.4666H54.1255V33.7ZM46.0134 51.0833H54.1255V44.0166H62.8063C68.5601 44.0166 70.6174 40.65 70.6174 36.2833C70.6174 31.2166 68.4764 28.35 62.7394 28.35H46.0134V51.1V51.0833Z" fill="white"/>
<path d="M73.31 28.35H95.1208V33.8833H81.4054V36.9333H94.1339V42.4666H81.4054V45.5166H95.1208V51.05H73.31V28.35Z" fill="white"/>
<path d="M106.628 33.7H111.847C113.887 33.7 114.657 34.4 114.657 36.1166C114.657 37.8333 113.871 38.4666 111.847 38.4666H106.628V33.7ZM98.5162 51.0833H106.628V44.0166H115.309C121.063 44.0166 123.12 40.65 123.12 36.2833C123.12 31.2166 120.979 28.35 115.242 28.35H98.5162V51.1V51.0833Z" fill="white"/>
<path d="M130.982 41.4334C127.001 40.7667 125.378 38.2167 125.378 35.0334C125.378 29.15 130.58 27.55 137.254 27.55C146.403 27.55 150.166 30.2 150.451 35H141.017C141.017 34.0834 140.532 33.5 139.78 33.1834C139.06 32.8334 138.14 32.7167 137.254 32.7167C134.845 32.7167 133.992 33.3834 133.992 34.3334C133.992 34.9667 134.26 35.3834 135.046 35.5167L144.73 37.1C148.812 37.7667 151.337 39.8667 151.337 43.7167C151.337 49.25 147.256 51.8667 138.14 51.8667C131.902 51.8667 125.077 50.9167 125.044 44.2334H134.812C134.845 45.0001 135.113 45.5 135.682 45.85C136.284 46.1667 137.187 46.3167 138.441 46.3167C140.967 46.3167 141.67 45.5501 141.67 44.4667C141.67 43.8001 141.302 43.1334 140.198 42.9501L130.948 41.4167L130.982 41.4334Z" fill="white"/>
<path d="M131.835 70.95C128.373 70.3667 126.934 68.1667 126.934 65.4167C126.934 60.3167 131.484 58.9333 137.304 58.9333C145.299 58.9333 148.594 61.2167 148.845 65.3833H140.599C140.599 64.5833 140.181 64.0833 139.529 63.8C138.91 63.5 138.107 63.3833 137.304 63.3833C135.197 63.3833 134.461 63.9667 134.461 64.8C134.461 65.35 134.678 65.7167 135.381 65.8333L143.844 67.2167C147.44 67.8 149.631 69.6167 149.631 72.95C149.631 77.75 146.069 80.0167 138.09 80.0167C132.638 80.0167 126.683 79.1833 126.65 73.4H135.197C135.23 74.0667 135.448 74.5 135.95 74.8167C136.468 75.1 137.254 75.2333 138.375 75.2333C140.599 75.2333 141.202 74.5667 141.202 73.6333C141.202 73.05 140.884 72.4667 139.93 72.3L131.818 70.95H131.835Z" fill="white"/>
<path d="M154.014 28.35H162.126V51.0833H154.014V28.35Z" fill="white"/>
<path d="M192.166 42.2334C191.647 45.2167 190.727 47.65 188.72 49.3C186.73 50.95 183.619 51.8834 178.684 51.8834C173.75 51.8834 164.651 51.5 164.651 39.7167C164.651 27.9334 173.767 27.55 178.684 27.55C183.602 27.55 191.112 28.25 192.166 37.25H183.016C182.782 35.6334 181.812 33.2834 178.668 33.2834C175.356 33.2834 173.265 35.1 173.265 39.7C173.265 44.3 175.306 46.1167 178.266 46.1167C180.825 46.1167 182.347 44.9334 183 42.2H192.166V42.2334Z" fill="white"/>
<path d="M202.787 39.7167C202.787 35.1 204.894 33.3 208.189 33.3C211.484 33.3 213.592 35.1167 213.592 39.7167C213.592 44.3167 211.484 46.1334 208.189 46.1334C204.894 46.1334 202.787 44.3334 202.787 39.7167ZM194.156 39.7167C194.156 51.5 203.272 51.8834 208.189 51.8834C213.107 51.8834 222.222 51.5 222.222 39.7167C222.222 27.9334 213.107 27.55 208.189 27.55C203.272 27.55 194.156 27.9334 194.156 39.7167Z" fill="white"/>
<path d="M45.7959 58.9333H53.2724V73.8834H66.3689V79.6H45.8126V58.9333H45.7959Z" fill="white"/>
<path d="M87.4103 75.6833H77.6925L76.0868 79.6166H68.0583L77.6925 58.95H87.3936L97.0278 79.6166H89.0328L87.4103 75.6833ZM85.5872 71.1833L84.1153 67.6C83.7641 66.7166 82.911 64.4833 82.5765 63.15H82.4929C82.1249 64.5 81.2886 66.7333 80.9541 67.6L79.4822 71.1833H85.5872Z" fill="white"/>
<path d="M124.392 73.6C124.392 76.5 122.334 79.6 116.33 79.6H99.4531V58.9333H116.229C121.431 58.9333 123.907 60.9833 123.907 64.1C123.907 66.2 122.552 68.0333 119.591 68.65C122.752 69.1 124.392 70.85 124.392 73.6167V73.6ZM106.93 63.55V67H113.955C115.677 67 116.112 66.05 116.112 65.1667C116.112 64.2833 115.644 63.55 113.955 63.55H106.93ZM116.597 73C116.597 71.9333 115.778 71.1333 114.239 71.1333H106.946V75.0167H114.239C115.895 75.0167 116.597 74.0333 116.597 73Z" fill="white"/>
</g>
<defs>
<clipPath id="clip0_405_2376">
<rect width="222.222" height="80" fill="white"/>
</clipPath>
</defs>
</svg>
