<svg width="24" height="24" viewBox="0 0 24 24" fill="none" xmlns="http://www.w3.org/2000/svg">
<path d="M12 0C5.373 0 0 5.373 0 12C0 17.084 3.163 21.426 7.627 22.998C7.522 22.349 7.427 21.125 7.669 20.163C7.887 19.292 9.24 13.21 9.24 13.21C9.24 13.21 8.903 12.59 8.903 11.641C8.903 9.848 9.84 8.449 10.972 8.449C11.923 8.449 12.404 9.15 12.404 9.94C12.404 10.793 11.851 12.049 11.494 13.198C11.196 14.128 12.008 14.859 12.917 14.859C14.606 14.859 15.92 12.98 15.92 10.595C15.92 8.495 14.336 6.989 12.053 6.989C9.199 6.989 7.346 9.018 7.346 11.231C7.346 12.163 7.695 13.115 8.155 13.636C8.22 13.72 8.231 13.808 8.214 13.892L8.008 14.794C7.988 14.9 7.91 14.93 7.81 14.894C6.517 14.407 5.771 12.82 5.771 11.431C5.771 8.521 7.896 5.99 12.18 5.99C15.205 5.99 17.709 7.933 17.709 10.702C17.709 13.733 15.562 16.168 12.794 16.168C11.78 16.168 10.834 15.681 10.5 15.116L10.044 17.276C9.828 18.108 9.263 19.196 8.774 20.018C9.812 20.613 11.003 20.978 12.248 20.978C18.627 20.978 24 15.605 24 8.989C24 4.023 18.627 0 12 0Z" fill="#BD081C"/>
</svg>

